<svg xmlns="http://www.w3.org/2000/svg" xmlns:xlink="http://www.w3.org/1999/xlink" version="1.1" x="0px" y="0px" viewBox="0 0 100 125" enable-background="new 0 0 100 100" xml:space="preserve"><g><path d="M97.294,51.146c-0.14-0.71-0.692-1.051-1.136-1.325c-0.221-0.136-0.449-0.276-0.634-0.459   c-0.498-0.491-0.85-1.172-1.222-1.894c-0.122-0.237-0.244-0.473-0.371-0.701c-1.022-1.851-2.423-4.031-4.188-4.464   c-0.725-0.177-1.438-0.047-2.071,0.373c-0.468,0.311-0.741,0.758-0.961,1.118c-0.133,0.218-0.299,0.489-0.4,0.52   c-0.132,0.04-0.19,0.035-0.635-0.311c-0.306-0.237-0.686-0.532-1.193-0.687c-0.907-0.276-1.797-0.12-2.384,0.417   c-0.316,0.29-0.812,0.944-0.573,2.081c0.055,0.262,0.165,0.579,0.379,0.894c-0.066,0.004-0.132,0.006-0.197,0.006   c-0.636,0.008-1.239-0.023-1.86-0.051c-0.637-0.028-1.249-0.054-1.919-0.054l-9.052,0.024c-5.224,0.014-13.118,0.035-14.669,7.274   c-0.042,0.194-0.024,0.396,0.049,0.581c0.003,0.008,0.005,0.018,0.008,0.026l-0.58,0.03c-0.978-6.642-4.544-11.78-8.985-12.809   l0.652-1.102l1.812,1.066c0.32,0.189,0.722,0.183,1.039-0.015l2.959-1.858l-0.031,0.063c-0.243,0.497-0.036,1.095,0.46,1.337   c0.141,0.069,0.29,0.102,0.438,0.102c0.37,0,0.727-0.206,0.899-0.561l1.455-2.979c0.087-0.063,0.17-0.132,0.233-0.22   c0.13-0.182,0.436-0.677,0.483-1.246l5.689-11.652c0.242-0.497,0.036-1.095-0.46-1.337c-0.492-0.243-1.095-0.037-1.337,0.459   L53.67,34.688c-0.106-0.013-0.219-0.022-0.342-0.022c-0.176,0-0.348,0.046-0.5,0.134l-4.574,2.642l-2.182-2.181   c-0.091-0.092-0.2-0.165-0.319-0.215c-4.765-2.005-8.249,4.369-8.395,4.641c-0.068,0.127-0.103,0.261-0.113,0.396   c-0.142,0.159-0.26,0.342-0.345,0.544c-0.025,0.013-0.051,0.024-0.078,0.035c-0.214,0.085-0.435,0.085-0.592,0.001   c-0.157-0.083-0.279-0.268-0.327-0.493c-0.048-0.225-0.012-0.443,0.096-0.584c0.304-0.393,0.272-0.949-0.073-1.306   c-0.345-0.357-0.9-0.406-1.303-0.116l-1.757,1.265l-0.114-0.67c-0.069-0.408-0.382-0.731-0.787-0.813   c-0.405-0.085-0.82,0.094-1.042,0.443c-1.033,1.621-2.934,2.677-4.857,2.773c0.047-1.193-0.252-2.395-0.87-3.424   c-0.181-0.301-0.506-0.485-0.857-0.485c-0.001,0-0.003,0-0.004,0c-0.353,0.001-0.679,0.189-0.857,0.493l-0.836,1.421   c-0.084-0.203-0.235-0.377-0.434-0.488c-0.323-0.181-0.717-0.169-1.028,0.029l-3.601,2.298l0.061-1.772   c0.01-0.283-0.102-0.558-0.306-0.754s-0.485-0.294-0.766-0.277c-1.432,0.103-2.804,0.863-3.766,2.084   c-0.375,0.477-0.667,0.997-0.871,1.539c-0.324-0.122-0.67-0.174-1.009-0.154c-0.615,0.04-1.205,0.326-1.651,0.793   c-0.198-0.141-0.415-0.263-0.646-0.364c-0.949-0.414-1.981-0.398-2.832,0.046c-0.21,0.11-0.375,0.291-0.464,0.511   c-0.449,1.109-0.39,2.414,0.162,3.58c0.244,0.516,0.582,0.962,0.969,1.344c-0.25,0.183-0.418,0.469-0.418,0.797v12.45l-3.001,0.4   l0.264,1.982l7.264-0.967c0.745,4.651,2.736,8.453,5.371,10.637l-4.531,0.023l0.01,2l79.921-0.398l-0.01-2l-8.471,0.042   c-1.035-6.343,1.607-12.813,7.013-17.018c0.032-0.025,0.063-0.053,0.093-0.082c0.492-0.492,1.29-0.7,2.062-0.9   c0.47-0.122,0.948-0.247,1.379-0.445c0.595,0.354,1.328,0.462,2.002,0.26c0.777-0.236,1.296-0.856,1.455-1.641   C97.135,52.309,97.414,51.756,97.294,51.146z M23.524,61.591c0.071-0.341,0.114-0.706,0.129-1.092l3.593-0.479   c-0.07,1.331-0.258,2.538-0.537,3.615L23.524,61.591z M26.053,65.591c-0.898,2.129-2.171,3.539-3.417,4.18l-0.39-5.929   c0.159-0.111,0.306-0.25,0.443-0.409L26.053,65.591z M20.733,58.871v-11.77l0.936-0.157v11.802L20.733,58.871z M19.999,63.711   c0.081,0.068,0.16,0.141,0.248,0.195l0.409,6.222c-1.374-0.25-2.715-1.558-3.748-3.488L19.999,63.711z M16.053,64.695   c-0.343-0.952-0.62-1.985-0.804-3.076l3.549-0.473c0.037,0.28,0.093,0.544,0.162,0.794L16.053,64.695z M21.747,72.851l-1.234,0.006   c-3.775-0.436-6.988-4.823-7.966-10.878l0.722-0.096c0.973,5.93,4.251,10.291,7.863,10.291c0.2,0,0.4-0.022,0.601-0.048   c0.019,0,0.038-0.001,0.056-0.002c0.005,0,0.01-0.004,0.015-0.004c3.572-0.519,7.174-5.13,7.449-12.366l0.723-0.096   C29.556,66.746,26.072,72.358,21.747,72.851z M26.379,72.828c3.147-2.665,5.337-7.65,5.602-13.438l0.236-0.031   c0.257,5.763,2.422,10.729,5.542,13.412L26.379,72.828z M44.325,72.738l-2.464,0.012c-4.331-0.979-7.682-7.114-7.682-14.534   c0-8.098,3.988-14.687,8.889-14.687s8.889,6.588,8.889,14.687C51.958,65.608,48.632,71.725,44.325,72.738z M54.996,68.884   c-0.092,1.345-0.177,2.622-0.224,3.802l-6.337,0.032c3.293-2.873,5.523-8.291,5.523-14.501c0-0.004,0-0.008,0-0.011l1.141-0.09   C55.497,61.405,55.242,65.308,54.996,68.884z M74.032,72.59l-15.765,0.079c0.139-2.658,0.644-5.787,1.524-8.136   c0.088,0.066,0.141,0.123,0.197,0.183c0.51,0.548,0.929,0.79,3.622,1.361c3.196,0.677,6.436,0.1,9.568-0.457   c1-0.179,2.026-0.361,3.034-0.498c0.068,0.183,0.114,0.363,0.177,0.546l-2.335,6.755C74.036,72.478,74.041,72.534,74.032,72.59z    M76.117,72.58l1.233-3.567c0.287,1.239,0.505,2.427,0.677,3.557L76.117,72.58z"/><path d="M51.206,57.487c0-0.024,0.01-0.045,0.008-0.069c-0.001-0.015-0.01-0.027-0.012-0.042   c-0.274-7.879-4.328-13.118-8.134-13.118c-0.001,0-0.002,0-0.003,0c-0.001,0-0.002,0.001-0.003,0.001   c-2.378,0.003-4.849,2.057-6.44,5.511c-0.001,0.002-0.002,0.005-0.003,0.007c-1.044,2.268-1.711,5.134-1.711,8.44   c0,0.136,0.01,0.265,0.013,0.4c0,0.029-0.012,0.054-0.01,0.083c0.001,0.019,0.012,0.034,0.014,0.053   c0.178,8.048,4.289,13.421,8.144,13.421c3.941,0,8.161-5.608,8.161-13.957C51.229,57.968,51.214,57.731,51.206,57.487z    M48.029,51.37c0.572,1.464,0.984,3.212,1.133,5.206l-3.65,0.288c-0.044-0.255-0.102-0.496-0.173-0.724L48.029,51.37z    M42.073,46.466l0.025,7.943c-0.086,0.06-0.168,0.132-0.247,0.207l-3.217-4.435C39.617,48.227,40.885,46.942,42.073,46.466z    M37.756,52.376l3.079,4.245c-0.043,0.2-0.082,0.403-0.106,0.619l-3.8,0.299C36.987,55.597,37.289,53.864,37.756,52.376z    M38.069,64.956c-0.581-1.521-0.997-3.334-1.121-5.412l3.852-0.303c0.039,0.215,0.087,0.42,0.146,0.615L38.069,64.956z    M39.132,67.142l2.99-5.3l0.026,8.148C41.13,69.61,40.049,68.632,39.132,67.142z M44.073,46.469c0.974,0.393,1.999,1.338,2.88,2.74   l-2.855,5.06L44.073,46.469z M44.148,69.926l-0.026-8.222c0.089-0.056,0.169-0.133,0.252-0.204l3.256,4.49   C46.652,68.043,45.363,69.403,44.148,69.926z M48.472,63.746l-3.029-4.177c0.054-0.224,0.098-0.458,0.127-0.703l3.649-0.287   C49.187,60.515,48.911,62.246,48.472,63.746z"/><path d="M41.627,32.112c0.633,1.463,1.988,2.485,3.567,2.485c2.179,0,3.952-1.934,3.952-4.311c0-1.225-0.476-2.325-1.231-3.111   c-0.028-0.032-0.062-0.056-0.094-0.085c-0.7-0.685-1.615-1.114-2.627-1.114c-2.18,0-3.953,1.934-3.953,4.31   c0,0.631,0.132,1.226,0.356,1.767C41.608,32.074,41.617,32.093,41.627,32.112z M47.105,29.814c0.027,0.153,0.042,0.311,0.042,0.473   c0,1.274-0.875,2.311-1.952,2.311c-0.395,0-0.763-0.142-1.07-0.382C45.466,31.661,46.453,30.673,47.105,29.814z"/></g><text x="0" y="115" fill="#000000" font-size="5px" font-weight="bold" font-family="'Helvetica Neue', Helvetica, Arial-Unicode, Arial, Sans-serif">Created by Brand Mania</text><text x="0" y="120" fill="#000000" font-size="5px" font-weight="bold" font-family="'Helvetica Neue', Helvetica, Arial-Unicode, Arial, Sans-serif">from the Noun Project</text></svg>